<svg width="83" height="83" viewBox="0 0 83 83" fill="none" xmlns="http://www.w3.org/2000/svg">
<path d="M50.1274 73.107C48.5343 73.6861 46.9004 73.7639 45.2805 73.8506C43.894 73.9246 42.5011 73.9157 41.1121 73.8723C40.2715 73.8468 39.4373 73.6759 38.5981 73.5917C38.07 73.5381 37.5381 73.5241 37.0075 73.4884C36.7996 73.4743 36.7154 73.556 36.7256 73.7702C36.7383 74.047 36.7345 74.3264 36.7256 74.6044C36.7205 74.7856 36.7957 74.8544 36.9718 74.848C37.1108 74.8429 37.2498 74.8608 37.3889 74.8595C38.5636 74.8519 39.7014 75.0738 40.8557 75.283C42.2588 75.5381 43.7065 75.5509 45.1363 75.658C45.3659 75.6759 45.6006 75.6172 45.8302 75.635C47.2792 75.7486 48.6746 75.3034 50.1045 75.232C50.3111 75.2218 50.5216 75.1146 50.7142 75.019C51.0433 74.8544 51.3698 74.8697 51.5815 75.0891C51.8035 75.32 51.8124 75.6631 51.5981 75.9833C51.3711 76.3213 51.0739 76.5751 50.6695 76.6682C50.2754 76.7588 49.8762 76.8264 49.4782 76.8978C49.0126 76.982 48.5445 77.0623 48.079 77.144C47.783 77.195 47.4884 77.2792 47.1899 77.2919C45.1759 77.3748 43.1606 77.4322 41.1593 77.1006C40.9654 77.0687 40.7639 77.0572 40.5789 76.9973C39.4437 76.6223 38.2702 76.5279 37.0866 76.5075C36.8557 76.5037 36.6236 76.5075 36.394 76.5292C35.6044 76.6057 35.1427 76.2422 35.107 75.4437C35.0789 74.82 35.1006 74.1937 35.1248 73.5687C35.1337 73.3493 35.0955 73.2052 34.8952 73.084C34.6121 72.9118 34.4322 72.6542 34.4922 72.2996C34.5483 71.9628 34.7817 71.8008 35.0968 71.7039C35.1886 71.6758 35.2957 71.5177 35.3021 71.4144C35.3646 70.4667 35.408 69.5177 35.4526 68.57C35.4552 68.5036 35.4526 68.4233 35.4182 68.3697C34.6835 67.1848 34.6376 65.8467 34.5547 64.5177C34.459 62.9921 34.4105 61.4641 34.2715 59.9424C34.1452 58.5572 33.899 57.1898 33.3314 55.899C32.9756 55.089 32.4896 54.385 31.7983 53.825C30.7013 52.9347 29.6516 51.9806 28.5062 51.1579C25.9284 49.3059 24.5597 46.7472 23.9271 43.7114C22.9271 38.9155 23.4539 34.2446 25.0559 29.6604C25.1809 29.3007 25.3136 28.9308 25.5176 28.6132C26.4704 27.1221 27.4386 25.6399 28.4284 24.1731C28.6516 23.8427 28.9577 23.5519 29.274 23.3045C31.5495 21.5289 33.945 19.9346 36.7371 19.1016C39.6657 18.2266 42.6682 17.8669 45.6912 18.5187C48.0458 19.0264 50.2397 20.006 52.3698 21.1246C53.3328 21.631 54.3035 22.1233 55.2933 22.5749C57.2384 23.4614 58.8214 24.7407 60.0038 26.5481C61.0777 28.191 61.9999 29.8798 62.4004 31.8236C62.6619 33.0953 62.4668 34.3339 62.2385 35.58C61.5892 39.1056 60.4489 42.4678 58.6619 45.5711C57.468 47.6451 56.1313 49.6426 54.778 51.6184C53.6861 53.2128 52.7116 54.8594 51.9948 56.6528C51.232 58.5623 50.8991 60.5304 51.0739 62.6006C51.2308 64.4679 51.2614 66.3467 51.3583 68.2205C51.3647 68.3416 51.431 68.4832 51.5152 68.5738C51.8519 68.9386 51.8379 69.2945 51.4884 69.6325C51.38 69.7371 51.2996 69.9144 51.2843 70.0661C51.1721 71.1605 51.0917 72.2575 50.9706 73.3506C50.9412 73.6172 50.829 73.8889 50.6963 74.1261C50.6389 74.2282 50.4336 74.246 50.2958 74.3034C50.2601 74.1784 50.2052 74.056 50.1912 73.9297C50.1606 73.6554 50.1491 73.3787 50.1313 73.1095L50.1274 73.107ZM49.8685 68.2562C49.8685 67.8723 49.8864 67.5508 49.866 67.2307C49.7652 65.6822 49.6746 64.1312 49.5433 62.5852C49.3468 60.2651 49.8149 58.0686 50.7154 55.9487C51.4922 54.1184 52.5063 52.427 53.6389 50.7918C54.931 48.927 56.1976 47.038 57.352 45.0864C59.181 41.9959 60.2487 38.6196 60.9208 35.0953C61.2767 33.2293 61.0242 31.4933 60.1836 29.8364C59.7129 28.9104 59.139 28.0366 58.5816 27.1578C57.6109 25.6272 56.2129 24.617 54.5688 23.904C53.5713 23.4716 52.6007 22.9767 51.6045 22.5379C50.292 21.9601 48.9731 21.3912 47.644 20.8529C44.2639 19.4817 40.8289 19.7152 37.4118 20.6463C34.7524 21.3708 32.5062 22.9065 30.3455 24.5621C30.1273 24.7292 29.9143 24.9295 29.7651 25.1578C28.8072 26.6183 27.8544 28.0813 26.9309 29.5647C26.7153 29.9116 26.598 30.3287 26.4755 30.7254C25.2294 34.7509 24.8033 38.8288 25.6707 42.9984C26.2345 45.7102 27.3748 48.0418 29.6758 49.7242C30.7205 50.4883 31.658 51.3977 32.6797 52.1949C34.2345 53.4066 35.098 55.0355 35.6044 56.885C36.1427 58.8518 36.2906 60.8722 36.3914 62.9003C36.4514 64.112 36.5598 65.3251 36.709 66.5291C36.8021 67.2766 36.9169 67.3276 37.6618 67.4156C37.7192 67.422 37.7766 67.4258 37.8353 67.4309C38.7804 67.5151 39.7243 67.6248 40.672 67.6758C41.4284 67.7166 42.1899 67.6835 42.9641 67.6835C42.63 66.3225 42.6057 64.9437 42.5458 63.5674C42.4871 62.2141 42.4169 60.8607 42.3544 59.5074C42.3034 58.3862 42.2269 57.2651 42.2167 56.1426C42.2027 54.5686 42.2664 52.9934 42.2422 51.4194C42.2333 50.8122 42.4259 50.4372 42.9845 50.2025C44.5585 49.5431 45.4539 48.3173 45.871 46.6949C46.2295 45.2995 45.9999 44.0329 45.0904 42.904C45.0152 42.8097 44.9246 42.728 44.8264 42.626C44.7282 42.7663 44.6644 42.8785 44.5802 42.9716C44.1695 43.4245 43.7983 43.9283 43.3289 44.3084C42.5419 44.9474 41.5458 44.9423 40.7014 44.4002C39.6236 43.7076 39.4667 42.1617 40.422 41.3135C41.2371 40.589 42.2039 40.2459 43.3085 40.404C44.2027 40.5316 44.2027 40.538 44.4425 39.654C44.4667 39.5647 44.4858 39.4742 44.5062 39.3836C44.718 38.4436 44.5802 37.5188 44.3978 36.5928C44.3379 36.2879 44.2881 35.9754 44.2817 35.6655C44.2754 35.3696 44.4131 35.1234 44.7218 35.0265C45.0407 34.927 45.2958 35.0481 45.4795 35.3045C45.593 35.4627 45.6874 35.6413 45.755 35.8237C46.4106 37.6055 46.4501 39.3785 45.6312 41.1247C45.5292 41.3441 45.5292 41.4831 45.7078 41.6681C46.2728 42.2497 46.6784 42.9334 46.8915 43.7229C47.2945 45.214 47.0216 46.6273 46.4514 48.0252C45.9705 49.2025 45.167 50.0418 44.0317 50.5852C43.792 50.7 43.5636 50.8441 43.3149 50.936C43.0853 51.0201 43.0598 51.1477 43.1134 51.3594C43.2817 52.0202 43.5024 52.6758 43.5828 53.3467C43.8085 55.2549 43.9501 57.1732 44.1695 59.0814C44.4744 61.7358 44.2958 64.3786 44.0471 67.0228C44.0228 67.2842 44.0113 67.547 43.9935 67.811C45.9463 68.3251 47.9042 68.0878 49.866 68.2524L49.8685 68.2562ZM36.8238 71.7001C37.2651 71.7281 37.6822 71.7281 38.0929 71.7855C39.306 71.9539 40.4947 72.2651 41.7371 72.246C43.982 72.2116 46.2269 72.2383 48.4718 72.2141C48.9272 72.209 49.38 72.0827 49.8353 72.0228C50.0292 71.9973 50.0777 71.9029 50.0649 71.7179C50.0305 71.2218 49.9999 70.7243 49.9935 70.2256C49.9897 69.9679 49.8991 69.8927 49.644 69.894C48.6478 69.9016 47.6517 69.9156 46.6568 69.8723C45.8494 69.8378 45.0458 69.723 44.2409 69.6478C43.5866 69.5866 42.9323 69.5151 42.2754 69.473C41.468 69.4207 40.658 69.4041 39.8493 69.3493C38.7919 69.2779 37.7371 69.1835 36.6733 69.0993C36.723 69.9513 36.7728 70.8136 36.8238 71.6988V71.7001ZM43.4042 41.904C42.7486 41.6438 41.8353 41.8887 41.4794 42.3543C41.283 42.6119 41.3417 42.9449 41.6465 43.0303C41.8583 43.089 42.1759 43.1081 42.3226 42.9908C42.7103 42.6821 43.0305 42.2892 43.4029 41.904H43.4042Z" fill="black"/>
<path d="M51.2358 16.3465C51.2601 15.3401 51.4578 14.5212 51.769 13.7304C52.5394 11.7725 53.3175 9.81715 54.0981 7.86178C54.1963 7.61561 54.3073 7.36816 54.4565 7.15132C54.5841 6.96509 54.7499 6.7827 54.9412 6.66917C55.4591 6.3605 56.005 6.65259 56.0331 7.25464C56.0445 7.50209 55.9884 7.76102 55.9221 8.00336C55.4246 9.85031 54.7665 11.6348 53.9387 13.3656C53.482 14.3197 53.2027 15.3554 52.8188 16.3452C52.6708 16.7266 52.4884 17.1067 52.2512 17.4384C52.1542 17.5748 51.8506 17.6641 51.6823 17.6195C51.5356 17.5799 51.3927 17.3363 51.3455 17.1577C51.2639 16.8478 51.2562 16.5187 51.2358 16.3465V16.3465Z" fill="black"/>
<path d="M17.848 60.9054C18.3556 60.5674 18.9245 60.1911 19.4908 59.8123C20.4067 59.1988 21.4092 58.7919 22.4858 58.5712C22.7421 58.5189 23.0164 58.5138 23.2778 58.5355C23.5852 58.561 23.8327 58.7204 23.9233 59.0342C24.0164 59.3544 23.9194 59.635 23.6631 59.8429C23.5215 59.959 23.3608 60.0623 23.1924 60.1324C21.8072 60.7115 20.5355 61.4819 19.3174 62.3531C18.8862 62.6618 18.4181 62.9233 17.9462 63.1669C17.7064 63.2906 17.4245 63.3786 17.1554 63.3965C16.2816 63.4539 15.7038 62.6567 16.0049 61.8353C16.2396 61.1937 16.7663 60.8965 17.3811 60.7383C17.4959 60.709 17.6503 60.8301 17.8467 60.9054H17.848Z" fill="black"/>
<path d="M70.8673 10.9843C71.0472 11.1003 71.301 11.1769 71.3737 11.3363C71.4477 11.497 71.4018 11.7751 71.3036 11.9383C71.1709 12.1577 70.9541 12.3389 70.7423 12.4957C69.0816 13.719 67.4566 14.9843 65.9579 16.4065C65.2704 17.0595 64.4821 17.5583 63.588 17.8873C63.2895 17.997 62.9949 18.0799 62.7589 17.8019C62.5165 17.5162 62.6122 17.1998 62.7946 16.9333C62.9349 16.7266 63.1301 16.5532 63.3188 16.3861C63.9859 15.7968 64.6875 15.2432 65.3278 14.6271C66.69 13.3159 68.1786 12.1922 69.8775 11.3567C70.1747 11.2113 70.4987 11.122 70.8661 10.9855L70.8673 10.9843Z" fill="black"/>
<path d="M9.26633 46.3887C8.98954 46.3887 8.7102 46.4143 8.43597 46.3836C7.91938 46.3262 7.59795 46.0201 7.56096 45.5954C7.52397 45.1757 7.78418 44.7931 8.28545 44.6668C8.76505 44.5456 9.26122 44.4742 9.75485 44.4321C11.0329 44.3237 12.3135 44.2102 13.5954 44.1668C14.4628 44.1375 15.2893 43.9461 16.1158 43.7306C16.4156 43.6515 16.672 43.6795 16.848 43.9525C17.0355 44.2459 16.9768 44.538 16.7625 44.7854C16.3505 45.2625 15.8199 45.5877 15.2217 45.7408C14.6209 45.8951 13.9985 45.9857 13.3799 46.0495C12.0112 46.191 10.6388 46.2982 9.26888 46.4194V46.39L9.26633 46.3887Z" fill="black"/>
<path d="M19.9334 22.4384C18.0036 22.0073 15.9461 22.0251 14.0992 21.0927C13.6757 20.8797 13.228 20.7164 12.7994 20.5111C12.626 20.4282 12.45 20.3172 12.3237 20.1743C12.0061 19.8146 12.1553 19.2942 12.6234 19.1935C12.8951 19.1348 13.2 19.1578 13.4767 19.2151C13.8607 19.293 14.2421 19.4078 14.603 19.5595C15.5928 19.9728 16.6222 20.2113 17.6706 20.4231C18.6426 20.6182 19.5941 20.9256 20.552 21.1884C20.8339 21.2662 21.0291 21.4358 21.0227 21.7521C21.0163 22.0608 20.8224 22.2394 20.5482 22.3236C20.3633 22.381 20.1656 22.3963 19.9334 22.4384V22.4384Z" fill="black"/>
<path d="M35.4756 13.3427C35.445 13.4409 35.4234 13.6475 35.3239 13.8044C35.1045 14.1475 34.6249 14.0621 34.4476 13.6514C34.204 13.0889 33.9756 12.5213 33.7448 11.9524C33.1415 10.4626 32.5369 8.97277 31.9425 7.47914C31.8404 7.22404 31.732 6.94725 31.7371 6.68194C31.7409 6.47148 31.8672 6.21 32.0267 6.07097C32.2435 5.88092 32.5165 6.00209 32.7205 6.17429C32.8506 6.28398 32.9718 6.41791 33.0598 6.5646C34.2512 8.55057 34.9986 10.7036 35.4399 12.969C35.4578 13.0595 35.4578 13.1526 35.4756 13.3427V13.3427Z" fill="black"/>
<path d="M69.4924 36.6719C70.4528 36.5329 71.4108 36.3747 72.3738 36.2612C73.0052 36.1872 73.6429 36.1668 74.2781 36.1438C74.4937 36.1362 74.7182 36.1719 74.9274 36.2306C75.2373 36.3173 75.458 36.5188 75.5052 36.8543C75.5549 37.205 75.3993 37.478 75.0983 37.6298C74.8547 37.7522 74.583 37.8607 74.3151 37.8862C73.0141 38.0125 71.7105 38.1196 70.4069 38.2089C69.7972 38.251 69.2028 38.1375 68.6748 37.8084C68.375 37.6221 68.0459 37.3798 68.1442 36.9933C68.2386 36.6183 68.6544 36.6642 68.9656 36.6196C69.1352 36.5954 69.3125 36.6158 69.486 36.6158L69.4937 36.6706L69.4924 36.6719Z" fill="black"/>
<path d="M72.0663 56.0495C71.7538 55.9475 71.4961 55.9028 71.2755 55.7867C70.2308 55.2383 69.1709 54.7128 68.1696 54.0941C67.588 53.7344 67.0905 53.2319 66.5854 52.7612C66.2448 52.4449 66.102 52.0074 66.0433 51.5495C66.0038 51.2383 66.1517 51.1196 66.4247 51.265C66.801 51.4653 67.1645 51.6872 67.528 51.9105C68.2755 52.3709 69.0178 52.8403 69.7627 53.3046C70.4592 53.7383 71.1645 54.1592 71.8507 54.6082C72.0701 54.751 72.2768 54.9398 72.4247 55.1528C72.5293 55.3033 72.6097 55.5686 72.5446 55.7115C72.4719 55.8709 72.2219 55.9487 72.0676 56.0495H72.0663Z" fill="black"/>
</svg>
